<svg width="1203" height="785" viewBox="0 0 1203 785" fill="none" xmlns="http://www.w3.org/2000/svg">
<rect width="1203" height="785" fill="#1A202C"/>
<path d="M635.832 410.472C620.513 401.114 620.513 378.867 635.832 369.509L970.565 165.041C986.558 155.273 1007.08 166.783 1007.08 185.523V594.458C1007.08 613.198 986.558 624.708 970.565 614.939L635.832 410.472Z" fill="url(#paint0_linear_101_12)"/>
<path d="M233.696 186.389C233.696 167.268 253.765 155.009 269.416 164.57L604.223 369.082C619.55 378.444 619.143 401.807 603.487 411.371L268.68 615.883C253.024 625.446 233.696 614.138 233.696 595.413L233.696 186.389Z" fill="url(#paint1_linear_101_12)"/>
<rect x="458.741" y="104.492" width="64.7638" height="571.002" rx="6" fill="url(#paint2_linear_101_12)"/>
<path d="M701.608 110.492C701.608 107.178 704.295 104.492 707.608 104.492H760.372C763.686 104.492 766.372 107.178 766.372 110.492V669.494C766.372 672.808 763.686 675.494 760.372 675.494H707.608C704.295 675.494 701.608 672.808 701.608 669.494V110.492Z" fill="url(#paint3_linear_101_12)"/>
<defs>
<linearGradient id="paint0_linear_101_12" x1="1146.14" y1="351.672" x2="586.922" y2="345.939" gradientUnits="userSpaceOnUse">
<stop stop-color="#4ECDC4"/>
<stop offset="1" stop-color="#1CB5E0"/>
</linearGradient>
<linearGradient id="paint1_linear_101_12" x1="536.981" y1="621.885" x2="238.456" y2="120.695" gradientUnits="userSpaceOnUse">
<stop stop-color="#4ECDC4"/>
<stop offset="1" stop-color="#1CB5E0"/>
</linearGradient>
<linearGradient id="paint2_linear_101_12" x1="495.469" y1="679.872" x2="551.538" y2="93.5193" gradientUnits="userSpaceOnUse">
<stop stop-color="#4ECDC4"/>
<stop offset="1" stop-color="#1CB5E0"/>
</linearGradient>
<linearGradient id="paint3_linear_101_12" x1="738.336" y1="679.872" x2="794.405" y2="93.5193" gradientUnits="userSpaceOnUse">
<stop stop-color="#4ECDC4"/>
<stop offset="1" stop-color="#1CB5E0"/>
</linearGradient>
</defs>
</svg>
